<svg height="511pt" viewBox="-66 1 511 511.999" width="511pt" xmlns="http://www.w3.org/2000/svg"><path d="m222.925781 117.097656-23.675781-21.648437-3.90625-2.191407-19.554688 10.699219v15.683594l50.785157 28.246094h7.449219v-30.789063zm0 0" fill="#d1cdcd"/><path d="m44.3125 173.847656h271.3125v-20.535156c0-6.375-5.164062-11.539062-11.539062-11.539062h-248.234376c-6.371093 0-11.539062 5.164062-11.539062 11.539062zm0 0" fill="#6285a4"/><path d="m104.96875 141.773438h-49.113281c-6.375 0-11.539063 5.164062-11.539063 11.539062v20.535156h49.113282v-20.535156c0-6.375 5.167968-11.539062 11.539062-11.539062zm0 0" fill="#537996"/><path d="m58.769531 247.363281h244.050781v213.839844h-244.050781zm0 0" fill="#e7e7e7"/><path d="m108.484375 247.363281h-49.714844v213.839844h244.050781v-43.984375h-24.484374c-93.808594 0-169.851563-76.046875-169.851563-169.855469zm0 0" fill="#d6d7d8"/><path d="m58.769531 247.363281h244.050781v43.875h-244.050781zm0 0" fill="#6285a4"/><path d="m108.484375 247.363281h-49.714844v43.875h55.445313c-3.730469-13.996093-5.730469-28.703125-5.730469-43.875zm0 0" fill="#537996"/><path d="m343.449219 181.324219v73.160156c0 5.511719-4.472657 9.984375-9.984375 9.984375h-305.335938c-5.523437 0-9.996094-4.472656-9.996094-9.984375v-73.160156c0-5.523438 4.472657-9.996094 9.996094-9.996094h305.335938c5.511718 0 9.984375 4.472656 9.984375 9.996094zm0 0" fill="#1a94fa"/><path d="m131.503906 231.464844c-33.214844 0-60.136718-26.921875-60.136718-60.136719h-43.238282c-5.519531 0-9.996094 4.476563-9.996094 9.996094v73.160156c0 5.511719 4.472657 9.984375 9.996094 9.984375h305.335938c5.515625 0 9.984375-4.46875 9.984375-9.984375v-23.019531zm0 0" fill="#0081d8"/><path d="m328.339844 459.144531v19.441407h-295.097656v-19.441407c0-6.84375 5.550781-12.398437 12.394531-12.398437h270.316406c6.84375 0 12.386719 5.554687 12.386719 12.398437zm0 0" fill="#7e4335"/><path d="m61.597656 446.746094h-15.960937c-6.847657 0-12.398438 5.550781-12.398438 12.398437v19.441407h295.101563v-15.917969h-250.820313c-8.792969 0-15.921875-7.128907-15.921875-15.921875zm0 0" fill="#753a2f"/><path d="m261.363281 88.152344c-18.257812 0-33.65625 12.226562-38.4375 28.945312-1.011719 3.503906-1.554687 7.214844-1.554687 11.039063 0 7.183593 1.894531 13.925781 5.203125 19.75 6.886719 12.085937 19.882812 20.242187 34.789062 20.242187 22.082031 0 39.992188-17.902344 39.992188-39.992187 0-22.082031-17.910157-39.984375-39.992188-39.984375zm0 53.621094c-7.082031 0-12.824219-5.742188-12.824219-12.828126 0-7.074218 5.742188-12.816406 12.824219-12.816406 7.085938 0 12.816407 5.742188 12.816407 12.816406 0 7.085938-5.730469 12.828126-12.816407 12.828126zm0 0" fill="#f64446"/><path d="m221.371094 44.480469-42.289063 27.792969h-96.363281c-18.8125 0-36.871094 7.394531-50.277344 20.601562l-.582031.570312c6.804687 8.285157 15.289063 14.839844 24.753906 19.3125 9.464844 4.480469 19.910157 6.882813 30.636719 6.882813h88.539062l23.460938-24.191406 27.335938-28.1875 2.5-.101563v-22.679687zm0 0" fill="#e7e7e7"/><path d="m199.25 73.707031-3.761719 3.878907c-12.59375 12.984374-29.910156 20.3125-47.996093 20.3125h-60.242188c-10.726562 0-21.171875-2.402344-30.636719-6.882813-4.363281-2.0625-8.507812-4.585937-12.390625-7.503906-4.210937 2.683593-8.167968 5.804687-11.78125 9.363281l-.582031.570312c6.804687 8.285157 15.289063 14.839844 24.753906 19.3125 9.464844 4.480469 19.910157 6.882813 30.636719 6.882813h88.539062l23.460938-24.191406 27.335938-28.1875 2.5-.101563v-21.742187l-2.5.101562zm0 0" fill="#dbdbdb"/><path d="m274.179688 330.375v116.371094h-72.988282v-116.371094c0-4.613281 3.753906-8.363281 8.363282-8.363281h56.273437c4.613281 0 8.351563 3.75 8.351563 8.363281zm0 0" fill="#b76224"/><path d="m172.96875 328.035156v67.203125c0 3.285157-2.664062 5.933594-5.933594 5.933594h-75.652344c-3.28125 0-5.933593-2.648437-5.933593-5.933594v-67.203125c0-3.273437 2.652343-5.933594 5.933593-5.933594h75.652344c3.269532 0 5.933594 2.660157 5.933594 5.933594zm0 0" fill="#3dcff3"/><path d="m372.515625 306.671875v93.980469c0 4.761718-3.863281 8.625-8.617187 8.625h-26.933594c-4.761719 0-8.625-3.863282-8.625-8.625v-93.980469c0-4.761719 3.863281-8.613281 8.625-8.613281h26.933594c4.753906 0 8.617187 3.851562 8.617187 8.613281zm0 0" fill="#e7e7e7"/><path d="m350.429688 400.652344v-93.980469c0-4.761719 3.859374-8.613281 8.621093-8.613281h-22.085937c-4.761719 0-8.625 3.851562-8.625 8.613281v93.980469c0 4.761718 3.863281 8.625 8.625 8.625h22.085937c-4.761719 0-8.621093-3.863282-8.621093-8.625zm0 0" fill="#d6d7d8"/><path d="m372.515625 359.378906v27.464844l-44.175781-11.433594v-27.464844zm0 0" fill="#f64446"/><path d="m372.515625 306.671875v93.980469c0 4.761718-3.863281 8.625-8.617187 8.625h-26.933594c-4.761719 0-8.625-3.863282-8.625-8.625v-93.980469c0-4.761719 3.863281-8.613281 8.625-8.613281h26.933594c4.753906 0 8.617187 3.851562 8.617187 8.613281zm0 0" fill="#e7e7e7"/><path d="m350.429688 400.652344v-93.980469c0-4.761719 3.859374-8.613281 8.621093-8.613281h-22.085937c-4.761719 0-8.625 3.851562-8.625 8.613281v93.980469c0 4.761718 3.863281 8.625 8.625 8.625h22.085937c-4.761719 0-8.621093-3.863282-8.621093-8.625zm0 0" fill="#d6d7d8"/><path d="m372.515625 359.378906v27.464844l-44.175781-11.433594v-27.464844zm0 0" fill="#f64446"/><path d="m350.429688 353.664062-22.089844-5.71875v27.464844l22.089844 5.71875zm0 0" fill="#e21e28"/><path d="m363.898438 298.058594c4.753906 0 8.617187 3.851562 8.617187 8.613281v25.253906l-44.175781-11.4375v-13.816406c0-4.761719 3.863281-8.613281 8.625-8.613281zm0 0" fill="#f64446"/><path d="m350.429688 305.15625c0-2.929688 1.421874-5.515625 3.601562-7.097656h-17.066406c-4.761719 0-8.625 3.851562-8.625 8.613281v13.816406l22.089844 5.71875zm0 0" fill="#e21e28"/><path d="m261.363281 7.5c-21.078125 0-38.339843 16.308594-39.871093 36.988281-.078126.992188-.121094 1.992188-.121094 3.003907 0 7.195312 1.894531 13.9375 5.214844 19.769531 6.882812 12.078125 19.878906 20.222656 34.777343 20.222656 22.082031 0 39.992188-17.902344 39.992188-39.992187 0-22.082032-17.910157-39.992188-39.992188-39.992188zm0 52.820312c-7.082031 0-12.824219-5.746093-12.824219-12.828124 0-7.074219 5.742188-12.816407 12.824219-12.816407 7.085938 0 12.816407 5.742188 12.816407 12.816407 0 7.082031-5.730469 12.828124-12.816407 12.828124zm0 0" fill="#f64446"/><path d="m339.125 475.582031c7.984375 0 14.460938 6.476563 14.460938 14.460938 0 3.992187-1.621094 7.601562-4.234376 10.222656-2.621093 2.613281-6.234374 4.234375-10.226562 4.234375h-316.667969c-7.984375 0-14.449219-6.472656-14.449219-14.457031 0-3.992188 1.609376-7.605469 4.230469-10.226563 2.613281-2.613281 6.226563-4.234375 10.21875-4.234375h10.785157v.070313h295.097656v-.070313zm0 0" fill="#662e27"/><path d="m31.296875 475.582031h-8.84375c-3.992187 0-7.601563 1.621094-10.214844 4.234375-2.621093 2.621094-4.230469 6.234375-4.230469 10.226563 0 7.984375 6.460938 14.457031 14.445313 14.457031h316.671875c3.992188 0 7.605469-1.621094 10.226562-4.234375 2.609376-2.621094 4.230469-6.230469 4.230469-10.222656h-307.835937c-7.984375 0-14.449219-6.476563-14.449219-14.460938zm0 0" fill="#602a23"/><path d="m261.363281 67.820312c11.207031 0 20.324219-9.117187 20.324219-20.324218 0-11.210938-9.117188-20.328125-20.324219-20.328125s-20.328125 9.117187-20.328125 20.328125c0 11.207031 9.121094 20.324218 20.328125 20.324218zm0-25.644531c2.933594 0 5.316407 2.386719 5.316407 5.316407 0 2.933593-2.382813 5.320312-5.316407 5.320312-2.933593 0-5.320312-2.386719-5.320312-5.320312 0-2.929688 2.386719-5.316407 5.320312-5.316407zm0 0"/><path d="m261.363281 108.621094c-11.207031 0-20.328125 9.121094-20.328125 20.328125s9.121094 20.324219 20.328125 20.324219 20.324219-9.117188 20.324219-20.324219-9.117188-20.328125-20.324219-20.328125zm0 25.648437c-2.933593 0-5.320312-2.386719-5.320312-5.320312 0-2.933594 2.386719-5.316407 5.320312-5.316407 2.933594 0 5.316407 2.382813 5.316407 5.316407 0 2.933593-2.382813 5.320312-5.316407 5.320312zm0 0"/><path d="m146.535156 95.445312c0 4.175782-3.386718 7.558594-7.558594 7.558594-4.175781 0-7.558593-3.382812-7.558593-7.558594 0-4.171874 3.382812-7.558593 7.558593-7.558593 4.171876 0 7.558594 3.386719 7.558594 7.558593zm0 0"/><path d="m85.871094 239.554688 28.394531 12.082031c.957031.410156 1.953125.601562 2.933594.601562 2.917969 0 5.695312-1.710937 6.910156-4.566406 1.621094-3.8125-.152344-8.21875-3.96875-9.84375l-34.761719-14.792969c-.707031-1.46875-1.566406-2.851562-2.589844-4.101562 1.023438-1.25 1.882813-2.632813 2.589844-4.101563l34.761719-14.792969c3.816406-1.625 5.589844-6.03125 3.96875-9.84375-1.625-3.816406-6.03125-5.589843-9.84375-3.96875l-28.394531 12.082032c-3.050782-7.429688-10.359375-12.679688-18.875-12.679688-11.25 0-20.40625 9.152344-20.40625 20.402344 0 4.890625 1.734375 9.382812 4.613281 12.902344-2.878906 3.519531-4.613281 8.007812-4.613281 12.898437 0 11.253907 9.15625 20.40625 20.40625 20.40625 8.519531 0 15.824218-5.25 18.875-12.683593zm-18.875-38.917969c2.976562 0 5.398437 2.417969 5.398437 5.394531s-2.421875 5.398438-5.398437 5.398438c-2.976563 0-5.394532-2.421876-5.394532-5.398438-.003906-2.972656 2.417969-5.394531 5.394532-5.394531zm-5.398438 31.195312c0-2.976562 2.421875-5.394531 5.398438-5.394531 2.976562 0 5.394531 2.417969 5.394531 5.394531 0 2.976563-2.417969 5.398438-5.394531 5.398438-2.976563 0-5.398438-2.421875-5.398438-5.398438zm0 0"/><path d="m117.425781 218.933594c0 4.144531 3.359375 7.503906 7.503907 7.503906h14.554687c4.144531 0 7.503906-3.359375 7.503906-7.503906 0-4.144532-3.359375-7.503906-7.503906-7.503906h-14.554687c-4.144532 0-7.503907 3.359374-7.503907 7.503906zm0 0"/><path d="m166.6875 226.4375h14.558594c4.144531 0 7.503906-3.359375 7.503906-7.503906 0-4.144532-3.359375-7.503906-7.503906-7.503906h-14.558594c-4.140625 0-7.503906 3.359374-7.503906 7.503906 0 4.144531 3.363281 7.503906 7.503906 7.503906zm0 0"/><path d="m208.449219 226.4375h14.554687c4.144532 0 7.503906-3.359375 7.503906-7.503906 0-4.144532-3.359374-7.503906-7.503906-7.503906h-14.554687c-4.144531 0-7.503907 3.359374-7.503907 7.503906 0 4.144531 3.359376 7.503906 7.503907 7.503906zm0 0"/><path d="m250.207031 226.4375h14.554688c4.144531 0 7.503906-3.359375 7.503906-7.503906 0-4.144532-3.359375-7.503906-7.503906-7.503906h-14.554688c-4.144531 0-7.503906 3.359374-7.503906 7.503906 0 4.144531 3.359375 7.503906 7.503906 7.503906zm0 0"/><path d="m291.964844 226.4375h14.558594c4.144531 0 7.503906-3.359375 7.503906-7.503906 0-4.144532-3.359375-7.503906-7.503906-7.503906h-14.558594c-4.144532 0-7.503906 3.359374-7.503906 7.503906 0 4.144531 3.359374 7.503906 7.503906 7.503906zm0 0"/><path d="m167.03125 314.597656h-75.652344c-7.410156 0-13.4375 6.027344-13.4375 13.4375v67.203125c0 7.410157 6.027344 13.4375 13.4375 13.4375h75.652344c7.410156 0 13.4375-6.027343 13.4375-13.4375v-67.203125c.003906-7.410156-6.027344-13.4375-13.4375-13.4375zm-1.570312 39.535156h-28.726563v-24.527343h28.726563zm-43.734376-24.527343v24.527343h-28.777343v-24.527343zm-28.777343 39.535156h28.777343v24.53125h-28.777343zm43.785156 24.53125v-24.53125h28.726563v24.53125zm0 0"/><path d="m261.269531 384.382812c0 4.515626-3.660156 8.175782-8.179687 8.175782-4.515625 0-8.175782-3.660156-8.175782-8.175782 0-4.515624 3.660157-8.179687 8.175782-8.179687 4.519531 0 8.179687 3.664063 8.179687 8.179687zm0 0"/><path d="m363.894531 290.550781h-26.929687c-8.890625 0-16.125 7.230469-16.125 16.125v9.96875h-10.515625v-44.667969h23.140625c9.644531 0 17.492187-7.847656 17.492187-17.496093v-73.15625c0-9.648438-7.847656-17.496094-17.492187-17.496094h-10.335938v-10.242187c0-9.0625-6.3125-16.65625-14.765625-18.671876.320313-2.214843.492188-4.472656.492188-6.773437 0-17-8.980469-31.929687-22.4375-40.324219 13.457031-8.390625 22.4375-23.324218 22.4375-40.320312 0-26.191406-21.304688-47.496094-47.492188-47.496094-23.65625 0-43.324219 17.386719-46.90625 40.046875l-37.621093 24.722656h-94.117188c-20.917969 0-40.640625 8.082031-55.542969 22.757813l-.582031.574218c-2.765625 2.722657-2.996094 7.105469-.535156 10.105469 15.09375 18.390625 37.394531 28.9375 61.1875 28.9375h13.890625c4.144531 0 7.503906-3.359375 7.503906-7.503906s-3.359375-7.503906-7.503906-7.503906h-13.890625c-16.882813 0-32.835938-6.550781-44.757813-18.183594 11.367188-9.179687 25.433594-14.175781 40.226563-14.175781h96.367187c1.464844 0 2.898438-.425782 4.121094-1.230469l31.773437-20.878906c.617188 2.8125 1.476563 5.539062 2.570313 8.140625l-44.933594 46.328125h-41.460937c-4.144532 0-7.503906 3.359375-7.503906 7.503906s3.359374 7.503906 7.503906 7.503906h42.691406l13.003906 7.230469h-130.828125c-10.589843 0-19.210937 8.617188-19.210937 19.210938v10.242187h-8.683594c-9.648438 0-17.492188 7.847656-17.492188 17.496094v73.15625c0 9.648437 7.84375 17.496093 17.492188 17.496093h23.140625v167.269532h-5.632813c-10.96875 0-19.894531 8.921875-19.894531 19.894531v8.941406h-3.28125c-12.105469 0-21.957031 9.851563-21.957031 21.960938 0 12.105469 9.851562 21.957031 21.957031 21.957031h316.675781c12.105469 0 21.957032-9.851562 21.957032-21.957031 0-12.109375-9.851563-21.960938-21.957032-21.960938h-3.285156v-8.941406c0-10.972656-8.921875-19.894531-19.890625-19.894531h-5.632812v-46.292969h10.519531v7.703125c0 8.894531 7.230469 16.125 16.121094 16.125h26.933594c8.890624 0 16.125-7.230469 16.125-16.125v-93.980469c-.003907-8.894531-7.238282-16.125-16.128907-16.125zm1.117188 59.136719-29.164063-7.550781v-11.957031l29.164063 7.550781zm-29.164063 7.953125 29.164063 7.550781v11.960938l-29.164063-7.550782zm1.117188-52.082031h26.929687c.617188 0 1.117188.5 1.117188 1.117187v15.550781l-29.164063-7.550781v-8.003906c0-.613281.5-1.113281 1.117188-1.113281zm-33.042969-156.175782c2.316406 0 4.199219 1.886719 4.199219 4.203126v10.242187h-15.472656c4.59375-4.03125 8.402343-8.929687 11.171874-14.445313zm-104.355469-43.480468 15.070313 13.785156c-.496094 2.742188-.769531 5.566406-.769531 8.449219 0 1.417969.074218 2.816406.195312 4.203125l-26.070312-14.5zm61.796875 54.722656c-17.914062 0-32.488281-14.574219-32.488281-32.488281 0-17.910157 14.574219-32.484375 32.488281-32.484375 17.910157 0 32.484375 14.574218 32.484375 32.484375 0 17.914062-14.574218 32.488281-32.484375 32.488281zm0-145.617188c17.910157 0 32.484375 14.574219 32.484375 32.484376 0 17.914062-14.574218 32.488281-32.484375 32.488281-17.914062 0-32.488281-14.574219-32.488281-32.488281.003906-17.910157 14.574219-32.484376 32.488281-32.484376zm-25.054687 72.808594c-6.632813 4.136719-12.171875 9.863282-16.085938 16.640625l-10.203125-9.332031 15.746094-16.238281c3.058594 3.460937 6.605469 6.476562 10.542969 8.929687zm-184.492188 65.769532c0-2.316407 1.886719-4.203126 4.203125-4.203126h157.8125l7.40625 4.117188c2.441407 3.855469 5.421875 7.332031 8.839844 10.328125h-178.261719zm-26.175781 100.894531v-73.15625c0-1.371094 1.113281-2.488281 2.484375-2.488281h305.339844c1.371094 0 2.484375 1.117187 2.484375 2.488281v73.15625c0 1.371093-1.113281 2.488281-2.484375 2.488281h-305.339844c-1.371094 0-2.484375-1.117188-2.484375-2.488281zm269.675781 17.496093v11.757813h-229.042968v-11.757813zm50.765625 218.066407c0 3.832031-3.117187 6.949219-6.949219 6.949219h-316.675781c-3.832031 0-6.949219-3.117188-6.949219-6.949219s3.117188-6.949219 6.949219-6.949219h9.816407c.316406.039062.640624.070312.972656.070312h295.097656c.332031 0 .652344-.03125.972656-.070312h9.816406c3.828126 0 6.949219 3.117188 6.949219 6.949219zm-25.242187-30.902344v8.941406h-280.089844v-8.941406c0-2.695313 2.191406-4.886719 4.882812-4.886719h270.320313c2.695313 0 4.886719 2.191406 4.886719 4.886719zm-39.152344-19.894531v-70.578125c0-4.144531-3.359375-7.503907-7.503906-7.503907-4.144532 0-7.503906 3.359376-7.503906 7.503907v70.578125h-57.980469v-108.871094c0-.472656.386719-.855469.855469-.855469h56.265624c.476563 0 .859376.382813.859376.855469v8.277344c0 4.144531 3.359374 7.503906 7.503906 7.503906 4.144531 0 7.503906-3.359375 7.503906-7.503906v-8.277344c0-8.746094-7.117188-15.863281-15.867188-15.863281h-56.265624c-8.746094 0-15.863282 7.117187-15.863282 15.863281v108.871094h-127.417968v-140.503906h229.042968v140.503906zm28.636719-61.300782v-46.289062h10.515625v46.289062zm53.570312 23.828126h-26.929687c-.617188 0-1.117188-.5-1.117188-1.117188v-15.550781l29.164063 7.550781v8.003906c0 .613282-.5 1.113282-1.117188 1.113282zm0 0"/></svg>